<svg width="15" height="15" viewBox="0 0 15 15" fill="none" xmlns="http://www.w3.org/2000/svg">
<g clip-path="url(#clip0_1628_175)">
<path d="M2.94206 0.00375366C1.32631 0.00375366 0.00390625 1.32612 0.00390625 2.94191V12.0595C0.00390625 13.6753 1.32628 14.9972 2.94206 14.9972H12.0597C13.6754 14.9972 14.9974 13.6753 14.9974 12.0595V2.94191C14.9974 1.32615 13.6754 0.00375366 12.0597 0.00375366H2.94206ZM3.68105 2.47797C4.45577 2.47797 4.93297 2.98656 4.9477 3.6551C4.9477 4.30887 4.45574 4.83176 3.66607 4.83176H3.65153C2.89156 4.83176 2.40035 4.3089 2.40035 3.6551C2.40035 2.98658 2.90642 2.47797 3.68104 2.47797H3.68105ZM10.3573 5.60262C11.8472 5.60262 12.9641 6.57645 12.9641 8.66916V12.5759H10.6998V8.93109C10.6998 8.01519 10.3721 7.39032 9.55267 7.39032C8.92711 7.39032 8.55424 7.81149 8.39053 8.21835C8.33072 8.36391 8.31602 8.56721 8.31602 8.77083V12.5759H6.05173C6.05173 12.5759 6.08144 6.4017 6.05173 5.7624H8.31649V6.72726C8.61739 6.26301 9.15562 5.60261 10.3573 5.60261V5.60262ZM2.53391 5.7629H4.79821V12.5759H2.53391V5.7629Z" fill="white"/>
</g>
<defs>
<clipPath id="clip0_1628_175">
<rect width="15" height="15" fill="white"/>
</clipPath>
</defs>
</svg>
