<svg width="16" height="18" viewBox="0 0 16 18" fill="none" xmlns="http://www.w3.org/2000/svg">
<g clip-path="url(#clip0_1628_173)">
<path d="M13.1785 3.41367C11.7288 1.93711 9.79821 1.125 7.74654 1.125C3.51172 1.125 0.0657366 4.62656 0.0657366 8.92969C0.0657366 10.3043 0.418638 11.6473 1.08984 12.832L0 16.875L4.07221 15.7887C5.19319 16.4109 6.45603 16.7379 7.74308 16.7379H7.74654C11.9779 16.7379 15.5 13.2363 15.5 8.9332C15.5 6.84844 14.6281 4.89023 13.1785 3.41367ZM7.74654 15.423C6.59788 15.423 5.47344 15.1102 4.49431 14.5195L4.2625 14.3789L1.84754 15.0223L2.49107 12.6281L2.33884 12.382C1.69877 11.3484 1.36317 10.1566 1.36317 8.92969C1.36317 5.3543 4.2279 2.44336 7.75 2.44336C9.45569 2.44336 11.0576 3.11836 12.2616 4.34531C13.4656 5.57227 14.206 7.2 14.2026 8.9332C14.2026 12.5121 11.2652 15.423 7.74654 15.423ZM11.2479 10.5645C11.0576 10.466 10.1131 9.99492 9.93661 9.93164C9.76016 9.86484 9.63214 9.8332 9.50413 10.0301C9.37612 10.227 9.00937 10.6629 8.8952 10.7965C8.78449 10.9266 8.67031 10.9441 8.48002 10.8457C7.35212 10.2727 6.61172 9.82266 5.86786 8.52539C5.67065 8.18086 6.06507 8.20547 6.43181 7.46016C6.49408 7.33008 6.46295 7.21758 6.41451 7.11914C6.36607 7.0207 5.98203 6.06094 5.82288 5.6707C5.66719 5.29102 5.50804 5.34375 5.3904 5.33672C5.27969 5.32969 5.15167 5.32969 5.02366 5.32969C4.89565 5.32969 4.68806 5.37891 4.51161 5.57227C4.33516 5.76914 3.8404 6.24023 3.8404 7.2C3.8404 8.15977 4.52891 9.08789 4.62232 9.21797C4.7192 9.34805 5.97511 11.3168 7.90223 12.1641C9.12009 12.6984 9.59754 12.7441 10.2065 12.6527C10.5767 12.5965 11.3413 12.1816 11.5004 11.7246C11.6596 11.2676 11.6596 10.8773 11.6112 10.7965C11.5662 10.7086 11.4382 10.6594 11.2479 10.5645Z" fill="white"/>
</g>
<defs>
<clipPath id="clip0_1628_173">
<rect width="15.5" height="18" fill="white"/>
</clipPath>
</defs>
</svg>
